<?xml version="1.0" standalone="no"?><!DOCTYPE svg PUBLIC "-//W3C//DTD SVG 1.1//EN" "http://www.w3.org/Graphics/SVG/1.1/DTD/svg11.dtd"><svg class="icon" width="200px" height="200.00px" viewBox="0 0 1024 1024" version="1.1" xmlns="http://www.w3.org/2000/svg"><path d="M489.633 748.48c-65.424 65.424-171.498 65.424-236.922 0s-65.424-171.498 0-236.922L489.633 748.48z" fill="#FFFFFF" /><path d="M371.172 812.548c-48.755 0-94.592-18.986-129.067-53.462-34.476-34.475-53.462-80.312-53.462-129.067s18.986-94.593 53.462-129.067l10.606-10.607L510.846 748.48l-10.606 10.606c-34.475 34.476-80.312 53.462-129.068 53.462z m-117.95-279.266c-22.396 27.208-34.58 61.037-34.58 96.736 0 40.742 15.866 79.046 44.675 107.854 28.809 28.81 67.113 44.675 107.854 44.675 35.702 0 69.528-12.181 96.737-34.58L253.222 533.282z" fill="#2B2B2B" /><path d="M482.562 150.932L251.245 511.264l238.681 238.682 368.233-230.454-165.617-93.555 3.767-108.757-109.072 3.518z" fill="#F9E178" /><path d="M487.763 768.996L232.095 513.328l250.723-390.562 112.624 182.659 116.414-3.755-4.007 115.685 179.64 101.477-399.726 250.164zM270.394 509.201L492.09 730.896l336.74-210.744-151.595-85.634 3.528-101.83-101.732 3.282-96.725-156.874-211.912 330.105z" fill="#2B2B2B" /><path d="M587.237 320.698L438.581 497.501" fill="#FFFFFF" /><path d="M438.573 512.502a14.94 14.94 0 0 1-9.646-3.52c-6.341-5.331-7.159-14.793-1.828-21.134l148.655-176.803c5.33-6.341 14.794-7.16 21.135-1.828 6.341 5.331 7.159 14.793 1.828 21.134L450.062 507.155a14.969 14.969 0 0 1-11.489 5.347z" fill="#2B2B2B" /><path d="M693.377 419.801L508.951 564.352" fill="#FFFFFF" /><path d="M508.961 579.354a14.975 14.975 0 0 1-11.816-5.748c-5.111-6.52-3.968-15.948 2.552-21.059l184.427-144.551c6.52-5.11 15.947-3.968 21.059 2.552 5.11 6.521 3.968 15.949-2.553 21.059L518.204 576.158a14.934 14.934 0 0 1-9.243 3.196z" fill="#2B2B2B" /><path d="M293.151 444.138l263.885 263.885" fill="#FFFFFF" /><path d="M557.036 723.023a14.95 14.95 0 0 1-10.606-4.394L282.544 454.745c-5.858-5.858-5.858-15.355 0-21.213 5.857-5.858 15.355-5.858 21.213 0l263.885 263.885c5.858 5.857 5.858 15.355 0 21.213a14.95 14.95 0 0 1-10.606 4.393z" fill="#2B2B2B" /><path d="M330.682 390.19l279.146 279.146" fill="#FFFFFF" /><path d="M609.828 684.336a14.95 14.95 0 0 1-10.606-4.394L320.076 400.796c-5.858-5.858-5.858-15.355 0-21.213 5.857-5.858 15.355-5.858 21.213 0l279.146 279.146c5.858 5.857 5.858 15.355 0 21.213a14.954 14.954 0 0 1-10.607 4.394z" fill="#2B2B2B" /></svg>